<svg width="57" height="52" viewBox="0 0 57 52" fill="none" xmlns="http://www.w3.org/2000/svg">
<path d="M12.1009 4.67889L22.4624 45.7594L28.4954 51.7863L40.8885 39.4023L49.5902 17.6236L45.9539 4.67889L28.4024 10.0384L12.1009 4.67889Z" fill="white"/>
<path d="M51.3877 5.54919C45.0964 -0.735694 34.9932 -0.897375 28.5057 5.06759L28.4919 5.05383C22.0319 -1.39962 11.5602 -1.39962 5.10025 5.05383C-1.35975 11.5073 -1.35975 21.9683 5.10025 28.4217L26.2468 49.5468C25.0071 43.9671 24.7075 38.6007 25.0932 33.623C26.505 35.9381 28.0925 38.1501 29.8486 40.2381C28.8982 43.6403 28.2405 47.6135 28.2646 51.5661L28.4919 51.7931L35.5132 44.7789C22.7068 33.0657 18.2096 17.8747 19.0085 7.93654C19.7179 13.4646 24.3528 17.885 27.8859 18.5455C31.3293 19.1853 43.3919 12.1918 45.1515 5.58359C43.7122 17.2039 32.7481 24.4657 32.4554 27.5514C32.1937 30.3 33.9808 36.7465 37.5345 42.7597L51.8836 28.4252L51.8698 28.4114C57.8408 21.9236 57.6824 11.8341 51.3877 5.54919ZM28.4024 16.7085C26.5601 16.7085 25.0656 15.2156 25.0656 13.3752C25.0656 11.5348 26.5601 10.0418 28.4024 10.0418C30.2446 10.0418 31.7391 11.5348 31.7391 13.3752C31.7391 15.2156 30.2446 16.7085 28.4024 16.7085Z" fill="#5D77F6"/>
<path d="M50.1928 44.373H48.4917C48.1646 44.373 47.9029 44.1082 47.9029 43.7848V42.0854C47.9029 41.7586 47.6377 41.4972 47.314 41.4972H44.0048C43.6777 41.4972 43.416 41.7621 43.416 42.0854V43.7848C43.416 44.1116 43.1508 44.373 42.8272 44.373H41.1261C40.7989 44.373 40.5372 44.6379 40.5372 44.9613V48.2706C40.5372 48.5974 40.8024 48.8588 41.1261 48.8588H42.8272C43.1543 48.8588 43.416 49.1237 43.416 49.447V51.1464C43.416 51.4732 43.6811 51.7346 44.0048 51.7346H47.314C47.6412 51.7346 47.9029 51.4698 47.9029 51.1464V49.447C47.9029 49.1202 48.168 48.8588 48.4917 48.8588H50.1928C50.5199 48.8588 50.7816 48.5939 50.7816 48.2706V44.9613C50.7816 44.6379 50.5199 44.373 50.1928 44.373Z" fill="#8CCBC6"/>
<path d="M55.9366 35.8212H55.086C54.9242 35.8212 54.7899 35.6905 54.7899 35.5253V34.6757C54.7899 34.514 54.659 34.3798 54.4937 34.3798H52.8374C52.6756 34.3798 52.5413 34.5105 52.5413 34.6757V35.5253C52.5413 35.687 52.4104 35.8212 52.2451 35.8212H51.3946C51.2327 35.8212 51.0984 35.9519 51.0984 36.117V37.7717C51.0984 37.9333 51.2293 38.0675 51.3946 38.0675H52.2451C52.407 38.0675 52.5413 38.1982 52.5413 38.3633V39.213C52.5413 39.3747 52.6721 39.5089 52.8374 39.5089H54.4937C54.6556 39.5089 54.7899 39.3781 54.7899 39.213V38.3633C54.7899 38.2017 54.9207 38.0675 55.086 38.0675H55.9366C56.0984 38.0675 56.2327 37.9368 56.2327 37.7717V36.117C56.2327 35.9519 56.0984 35.8212 55.9366 35.8212Z" fill="#8CCBC6"/>
<path d="M17.2179 48.0538H16.3674C16.2055 48.0538 16.0712 47.9231 16.0712 47.758V46.9083C16.0712 46.7466 15.9404 46.6125 15.7751 46.6125H14.1188C13.9569 46.6125 13.8226 46.7432 13.8226 46.9083V47.758C13.8226 47.9197 13.6918 48.0538 13.5265 48.0538H12.676C12.5141 48.0538 12.3798 48.1846 12.3798 48.3497V50.0043C12.3798 50.166 12.5107 50.3002 12.676 50.3002H13.5265C13.6884 50.3002 13.8226 50.4309 13.8226 50.596V51.4457C13.8226 51.6074 13.9535 51.7415 14.1188 51.7415H15.7751C15.937 51.7415 16.0712 51.6108 16.0712 51.4457V50.596C16.0712 50.4343 16.2021 50.3002 16.3674 50.3002H17.2179C17.3798 50.3002 17.5141 50.1694 17.5141 50.0043V48.3497C17.5141 48.1846 17.3798 48.0538 17.2179 48.0538Z" fill="#8CCBC6"/>
<path d="M6.45356 40.9365H6.03001C5.94737 40.9365 5.88194 40.8711 5.88194 40.7886V40.3654C5.88194 40.2829 5.81652 40.2175 5.73387 40.2175H4.90744C4.82479 40.2175 4.75936 40.2829 4.75936 40.3654V40.7886C4.75936 40.8711 4.69394 40.9365 4.61129 40.9365H4.18774C4.1051 40.9365 4.03967 41.0019 4.03967 41.0844V41.91C4.03967 41.9926 4.1051 42.0579 4.18774 42.0579H4.61129C4.69394 42.0579 4.75936 42.1233 4.75936 42.2058V42.629C4.75936 42.7115 4.82479 42.7769 4.90744 42.7769H5.73387C5.81652 42.7769 5.88194 42.7115 5.88194 42.629V42.2058C5.88194 42.1233 5.94737 42.0579 6.03001 42.0579H6.45356C6.53621 42.0579 6.60163 41.9926 6.60163 41.91V41.0844C6.59819 41.0019 6.53276 40.9365 6.45356 40.9365Z" fill="#8CCBC6"/>
</svg>
